<svg xmlns="http://www.w3.org/2000/svg" version="1.1" xmlns:xlink="http://www.w3.org/1999/xlink" xmlns:svgjs="http://svgjs.dev/svgjs" width="1440" height="560" preserveAspectRatio="none" viewBox="0 0 1440 560"><g mask="url(&quot;#SvgjsMask1012&quot;)" fill="none"><rect width="1440" height="560" x="0" y="0" fill="rgba(2, 2, 193, 0.49)"></rect><path d="M135 259L134 510" stroke-width="8" stroke="url(&quot;#SvgjsLinearGradient1013&quot;)" stroke-linecap="round" class="Down"></path><path d="M1233 461L1232 773" stroke-width="6" stroke="url(&quot;#SvgjsLinearGradient1014&quot;)" stroke-linecap="round" class="Up"></path><path d="M1194 440L1193 294" stroke-width="10" stroke="url(&quot;#SvgjsLinearGradient1013&quot;)" stroke-linecap="round" class="Down"></path><path d="M956 513L955 699" stroke-width="10" stroke="url(&quot;#SvgjsLinearGradient1014&quot;)" stroke-linecap="round" class="Up"></path><path d="M832 178L831 -45" stroke-width="8" stroke="url(&quot;#SvgjsLinearGradient1013&quot;)" stroke-linecap="round" class="Down"></path><path d="M63 399L62 659" stroke-width="10" stroke="url(&quot;#SvgjsLinearGradient1014&quot;)" stroke-linecap="round" class="Up"></path><path d="M786 113L785 511" stroke-width="6" stroke="url(&quot;#SvgjsLinearGradient1014&quot;)" stroke-linecap="round" class="Up"></path><path d="M803 246L802 -88" stroke-width="6" stroke="url(&quot;#SvgjsLinearGradient1013&quot;)" stroke-linecap="round" class="Down"></path><path d="M675 146L674 -33" stroke-width="10" stroke="url(&quot;#SvgjsLinearGradient1013&quot;)" stroke-linecap="round" class="Down"></path><path d="M670 524L669 341" stroke-width="10" stroke="url(&quot;#SvgjsLinearGradient1013&quot;)" stroke-linecap="round" class="Down"></path><path d="M1244 388L1243 670" stroke-width="8" stroke="url(&quot;#SvgjsLinearGradient1014&quot;)" stroke-linecap="round" class="Up"></path><path d="M384 298L383 501" stroke-width="10" stroke="url(&quot;#SvgjsLinearGradient1014&quot;)" stroke-linecap="round" class="Up"></path><path d="M30 42L29 -205" stroke-width="10" stroke="url(&quot;#SvgjsLinearGradient1014&quot;)" stroke-linecap="round" class="Up"></path><path d="M525 517L524 831" stroke-width="6" stroke="url(&quot;#SvgjsLinearGradient1014&quot;)" stroke-linecap="round" class="Up"></path><path d="M1088 8L1087 360" stroke-width="6" stroke="url(&quot;#SvgjsLinearGradient1013&quot;)" stroke-linecap="round" class="Down"></path><path d="M1169 107L1168 -44" stroke-width="8" stroke="url(&quot;#SvgjsLinearGradient1014&quot;)" stroke-linecap="round" class="Up"></path><path d="M914 357L913 204" stroke-width="8" stroke="url(&quot;#SvgjsLinearGradient1014&quot;)" stroke-linecap="round" class="Up"></path><path d="M531 27L530 399" stroke-width="10" stroke="url(&quot;#SvgjsLinearGradient1014&quot;)" stroke-linecap="round" class="Up"></path><path d="M1349 8L1348 242" stroke-width="6" stroke="url(&quot;#SvgjsLinearGradient1014&quot;)" stroke-linecap="round" class="Up"></path><path d="M1209 11L1208 392" stroke-width="10" stroke="url(&quot;#SvgjsLinearGradient1014&quot;)" stroke-linecap="round" class="Up"></path><path d="M813 244L812 102" stroke-width="8" stroke="url(&quot;#SvgjsLinearGradient1014&quot;)" stroke-linecap="round" class="Up"></path><path d="M239 221L238 72" stroke-width="6" stroke="url(&quot;#SvgjsLinearGradient1014&quot;)" stroke-linecap="round" class="Up"></path><path d="M666 199L665 384" stroke-width="6" stroke="url(&quot;#SvgjsLinearGradient1013&quot;)" stroke-linecap="round" class="Down"></path><path d="M151 299L150 131" stroke-width="6" stroke="url(&quot;#SvgjsLinearGradient1013&quot;)" stroke-linecap="round" class="Down"></path><path d="M1127 394L1126 580" stroke-width="8" stroke="url(&quot;#SvgjsLinearGradient1013&quot;)" stroke-linecap="round" class="Down"></path><path d="M744 168L743 363" stroke-width="8" stroke="url(&quot;#SvgjsLinearGradient1014&quot;)" stroke-linecap="round" class="Up"></path><path d="M994 133L993 -151" stroke-width="10" stroke="url(&quot;#SvgjsLinearGradient1014&quot;)" stroke-linecap="round" class="Up"></path><path d="M1057 294L1056 0" stroke-width="8" stroke="url(&quot;#SvgjsLinearGradient1013&quot;)" stroke-linecap="round" class="Down"></path><path d="M1188 548L1187 259" stroke-width="10" stroke="url(&quot;#SvgjsLinearGradient1014&quot;)" stroke-linecap="round" class="Up"></path><path d="M583 391L582 621" stroke-width="8" stroke="url(&quot;#SvgjsLinearGradient1014&quot;)" stroke-linecap="round" class="Up"></path><path d="M889 117L888 359" stroke-width="8" stroke="url(&quot;#SvgjsLinearGradient1013&quot;)" stroke-linecap="round" class="Down"></path><path d="M1074 249L1073 588" stroke-width="6" stroke="url(&quot;#SvgjsLinearGradient1014&quot;)" stroke-linecap="round" class="Up"></path><path d="M1092 131L1091 434" stroke-width="6" stroke="url(&quot;#SvgjsLinearGradient1013&quot;)" stroke-linecap="round" class="Down"></path><path d="M595 377L594 6" stroke-width="8" stroke="url(&quot;#SvgjsLinearGradient1014&quot;)" stroke-linecap="round" class="Up"></path><path d="M681 213L680 356" stroke-width="6" stroke="url(&quot;#SvgjsLinearGradient1014&quot;)" stroke-linecap="round" class="Up"></path><path d="M718 301L717 537" stroke-width="10" stroke="url(&quot;#SvgjsLinearGradient1014&quot;)" stroke-linecap="round" class="Up"></path></g><defs><mask id="SvgjsMask1012"><rect width="1440" height="560" fill="#ffffff"></rect></mask><linearGradient x1="0%" y1="0%" x2="0%" y2="100%" id="SvgjsLinearGradient1013"><stop stop-color="rgba(193, 2, 2, 0)" offset="0"></stop><stop stop-color="rgba(193, 2, 2, 0.47)" offset="1"></stop></linearGradient><linearGradient x1="0%" y1="100%" x2="0%" y2="0%" id="SvgjsLinearGradient1014"><stop stop-color="rgba(193, 2, 2, 0)" offset="0"></stop><stop stop-color="rgba(193, 2, 2, 0.47)" offset="1"></stop></linearGradient></defs></svg>