<svg xmlns="http://www.w3.org/2000/svg" version="1.1" xmlns:xlink="http://www.w3.org/1999/xlink" xmlns:svgjs="http://svgjs.dev/svgjs" width="1440" height="560" preserveAspectRatio="none" viewBox="0 0 1440 560"><g mask="url(&quot;#SvgjsMask1010&quot;)" fill="none"><rect width="1440" height="560" x="0" y="0" fill="rgba(255, 255, 255, 1)"></rect><path d="M-84.4 373.73L-84.4 373.73" stroke="rgba(193, 2, 2, 0.29)" stroke-width="1.5"></path><path d="M-84.4 373.73L-45.98 516.79" stroke="rgba(193, 2, 2, 0.29)" stroke-width="1.5"></path><path d="M-84.4 373.73L86 339.41" stroke="rgba(193, 2, 2, 0.29)" stroke-width="1.5"></path><path d="M-84.4 373.73L49.61 507.53" stroke="rgba(193, 2, 2, 0.29)" stroke-width="1.5"></path><path d="M-84.4 373.73L-67.26 672.42" stroke="rgba(193, 2, 2, 0.29)" stroke-width="1.5"></path><path d="M-84.4 373.73L205.27 512.95" stroke="rgba(193, 2, 2, 0.29)" stroke-width="1.5"></path><path d="M-45.98 516.79L-45.98 516.79" stroke="rgba(193, 2, 2, 0.29)" stroke-width="1.5"></path><path d="M-45.98 516.79L49.61 507.53" stroke="rgba(193, 2, 2, 0.29)" stroke-width="1.5"></path><path d="M-45.98 516.79L-67.26 672.42" stroke="rgba(193, 2, 2, 0.29)" stroke-width="1.5"></path><path d="M-45.98 516.79L98 655.36" stroke="rgba(193, 2, 2, 0.29)" stroke-width="1.5"></path><path d="M-67.26 672.42L-67.26 672.42" stroke="rgba(193, 2, 2, 0.29)" stroke-width="1.5"></path><path d="M-67.26 672.42L98 655.36" stroke="rgba(193, 2, 2, 0.29)" stroke-width="1.5"></path><path d="M-67.26 672.42L49.61 507.53" stroke="rgba(193, 2, 2, 0.29)" stroke-width="1.5"></path><path d="M-67.26 672.42L231.33 669.24" stroke="rgba(193, 2, 2, 0.29)" stroke-width="1.5"></path><path d="M-67.26 672.42L205.27 512.95" stroke="rgba(193, 2, 2, 0.29)" stroke-width="1.5"></path><path d="M86 339.41L86 339.41" stroke="rgba(193, 2, 2, 0.29)" stroke-width="1.5"></path><path d="M86 339.41L49.61 507.53" stroke="rgba(193, 2, 2, 0.29)" stroke-width="1.5"></path><path d="M49.61 507.53L49.61 507.53" stroke="rgba(193, 2, 2, 0.29)" stroke-width="1.5"></path><path d="M49.61 507.53L98 655.36" stroke="rgba(193, 2, 2, 0.29)" stroke-width="1.5"></path><path d="M49.61 507.53L205.27 512.95" stroke="rgba(193, 2, 2, 0.29)" stroke-width="1.5"></path><path d="M98 655.36L98 655.36" stroke="rgba(193, 2, 2, 0.29)" stroke-width="1.5"></path><path d="M98 655.36L231.33 669.24" stroke="rgba(193, 2, 2, 0.29)" stroke-width="1.5"></path><path d="M259.42 376.35L259.42 376.35" stroke="rgba(193, 2, 2, 0.29)" stroke-width="1.5"></path><path d="M259.42 376.35L400.18 368.97" stroke="rgba(193, 2, 2, 0.29)" stroke-width="1.5"></path><path d="M259.42 376.35L205.27 512.95" stroke="rgba(193, 2, 2, 0.29)" stroke-width="1.5"></path><path d="M205.27 512.95L205.27 512.95" stroke="rgba(193, 2, 2, 0.29)" stroke-width="1.5"></path><path d="M205.27 512.95L354.03 518.52" stroke="rgba(193, 2, 2, 0.29)" stroke-width="1.5"></path><path d="M231.33 669.24L231.33 669.24" stroke="rgba(193, 2, 2, 0.29)" stroke-width="1.5"></path><path d="M231.33 669.24L372.92 643.49" stroke="rgba(193, 2, 2, 0.29)" stroke-width="1.5"></path><path d="M231.33 669.24L205.27 512.95" stroke="rgba(193, 2, 2, 0.29)" stroke-width="1.5"></path><path d="M231.33 669.24L354.03 518.52" stroke="rgba(193, 2, 2, 0.29)" stroke-width="1.5"></path><path d="M400.18 368.97L400.18 368.97" stroke="rgba(193, 2, 2, 0.29)" stroke-width="1.5"></path><path d="M400.18 368.97L354.03 518.52" stroke="rgba(193, 2, 2, 0.29)" stroke-width="1.5"></path><path d="M400.18 368.97L512.68 488.16" stroke="rgba(193, 2, 2, 0.29)" stroke-width="1.5"></path><path d="M400.18 368.97L205.27 512.95" stroke="rgba(193, 2, 2, 0.29)" stroke-width="1.5"></path><path d="M354.03 518.52L354.03 518.52" stroke="rgba(193, 2, 2, 0.29)" stroke-width="1.5"></path><path d="M354.03 518.52L372.92 643.49" stroke="rgba(193, 2, 2, 0.29)" stroke-width="1.5"></path><path d="M354.03 518.52L512.68 488.16" stroke="rgba(193, 2, 2, 0.29)" stroke-width="1.5"></path><path d="M354.03 518.52L259.42 376.35" stroke="rgba(193, 2, 2, 0.29)" stroke-width="1.5"></path><path d="M372.92 643.49L372.92 643.49" stroke="rgba(193, 2, 2, 0.29)" stroke-width="1.5"></path><path d="M372.92 643.49L506.23 671.94" stroke="rgba(193, 2, 2, 0.29)" stroke-width="1.5"></path><path d="M372.92 643.49L512.68 488.16" stroke="rgba(193, 2, 2, 0.29)" stroke-width="1.5"></path><path d="M512.68 488.16L512.68 488.16" stroke="rgba(193, 2, 2, 0.29)" stroke-width="1.5"></path><path d="M512.68 488.16L668.55 530.78" stroke="rgba(193, 2, 2, 0.29)" stroke-width="1.5"></path><path d="M506.23 671.94L506.23 671.94" stroke="rgba(193, 2, 2, 0.29)" stroke-width="1.5"></path><path d="M506.23 671.94L649.42 694.65" stroke="rgba(193, 2, 2, 0.29)" stroke-width="1.5"></path><path d="M506.23 671.94L512.68 488.16" stroke="rgba(193, 2, 2, 0.29)" stroke-width="1.5"></path><path d="M506.23 671.94L668.55 530.78" stroke="rgba(193, 2, 2, 0.29)" stroke-width="1.5"></path><path d="M506.23 671.94L354.03 518.52" stroke="rgba(193, 2, 2, 0.29)" stroke-width="1.5"></path><path d="M506.23 671.94L231.33 669.24" stroke="rgba(193, 2, 2, 0.29)" stroke-width="1.5"></path><path d="M680.89 363.45L680.89 363.45" stroke="rgba(193, 2, 2, 0.29)" stroke-width="1.5"></path><path d="M680.89 363.45L827.84 358.05" stroke="rgba(193, 2, 2, 0.29)" stroke-width="1.5"></path><path d="M680.89 363.45L668.55 530.78" stroke="rgba(193, 2, 2, 0.29)" stroke-width="1.5"></path><path d="M680.89 363.45L806.94 519.52" stroke="rgba(193, 2, 2, 0.29)" stroke-width="1.5"></path><path d="M680.89 363.45L512.68 488.16" stroke="rgba(193, 2, 2, 0.29)" stroke-width="1.5"></path><path d="M668.55 530.78L668.55 530.78" stroke="rgba(193, 2, 2, 0.29)" stroke-width="1.5"></path><path d="M668.55 530.78L806.94 519.52" stroke="rgba(193, 2, 2, 0.29)" stroke-width="1.5"></path><path d="M668.55 530.78L649.42 694.65" stroke="rgba(193, 2, 2, 0.29)" stroke-width="1.5"></path><path d="M649.42 694.65L649.42 694.65" stroke="rgba(193, 2, 2, 0.29)" stroke-width="1.5"></path><path d="M649.42 694.65L816.63 698.21" stroke="rgba(193, 2, 2, 0.29)" stroke-width="1.5"></path><path d="M849.01 226.06L849.01 226.06" stroke="rgba(193, 2, 2, 0.29)" stroke-width="1.5"></path><path d="M849.01 226.06L827.84 358.05" stroke="rgba(193, 2, 2, 0.29)" stroke-width="1.5"></path><path d="M849.01 226.06L997.62 197.4" stroke="rgba(193, 2, 2, 0.29)" stroke-width="1.5"></path><path d="M849.01 226.06L955.78 66.29" stroke="rgba(193, 2, 2, 0.29)" stroke-width="1.5"></path><path d="M827.84 358.05L827.84 358.05" stroke="rgba(193, 2, 2, 0.29)" stroke-width="1.5"></path><path d="M827.84 358.05L963.96 387.78" stroke="rgba(193, 2, 2, 0.29)" stroke-width="1.5"></path><path d="M806.94 519.52L806.94 519.52" stroke="rgba(193, 2, 2, 0.29)" stroke-width="1.5"></path><path d="M806.94 519.52L827.84 358.05" stroke="rgba(193, 2, 2, 0.29)" stroke-width="1.5"></path><path d="M816.63 698.21L816.63 698.21" stroke="rgba(193, 2, 2, 0.29)" stroke-width="1.5"></path><path d="M816.63 698.21L806.94 519.52" stroke="rgba(193, 2, 2, 0.29)" stroke-width="1.5"></path><path d="M960.85 -66.75L960.85 -66.75" stroke="rgba(193, 2, 2, 0.29)" stroke-width="1.5"></path><path d="M960.85 -66.75L955.78 66.29" stroke="rgba(193, 2, 2, 0.29)" stroke-width="1.5"></path><path d="M960.85 -66.75L1098.18 -102.89" stroke="rgba(193, 2, 2, 0.29)" stroke-width="1.5"></path><path d="M960.85 -66.75L1109.95 105.4" stroke="rgba(193, 2, 2, 0.29)" stroke-width="1.5"></path><path d="M960.85 -66.75L997.62 197.4" stroke="rgba(193, 2, 2, 0.29)" stroke-width="1.5"></path><path d="M960.85 -66.75L849.01 226.06" stroke="rgba(193, 2, 2, 0.29)" stroke-width="1.5"></path><path d="M960.85 -66.75L1281.37 -39.61" stroke="rgba(193, 2, 2, 0.29)" stroke-width="1.5"></path><path d="M955.78 66.29L955.78 66.29" stroke="rgba(193, 2, 2, 0.29)" stroke-width="1.5"></path><path d="M955.78 66.29L997.62 197.4" stroke="rgba(193, 2, 2, 0.29)" stroke-width="1.5"></path><path d="M955.78 66.29L1109.95 105.4" stroke="rgba(193, 2, 2, 0.29)" stroke-width="1.5"></path><path d="M997.62 197.4L997.62 197.4" stroke="rgba(193, 2, 2, 0.29)" stroke-width="1.5"></path><path d="M997.62 197.4L1109.95 105.4" stroke="rgba(193, 2, 2, 0.29)" stroke-width="1.5"></path><path d="M997.62 197.4L1162.46 221.26" stroke="rgba(193, 2, 2, 0.29)" stroke-width="1.5"></path><path d="M997.62 197.4L963.96 387.78" stroke="rgba(193, 2, 2, 0.29)" stroke-width="1.5"></path><path d="M963.96 387.78L963.96 387.78" stroke="rgba(193, 2, 2, 0.29)" stroke-width="1.5"></path><path d="M963.96 387.78L1134 338.94" stroke="rgba(193, 2, 2, 0.29)" stroke-width="1.5"></path><path d="M1004.46 689.46L1004.46 689.46" stroke="rgba(193, 2, 2, 0.29)" stroke-width="1.5"></path><path d="M1004.46 689.46L1129.78 703.06" stroke="rgba(193, 2, 2, 0.29)" stroke-width="1.5"></path><path d="M1004.46 689.46L816.63 698.21" stroke="rgba(193, 2, 2, 0.29)" stroke-width="1.5"></path><path d="M1098.18 -102.89L1098.18 -102.89" stroke="rgba(193, 2, 2, 0.29)" stroke-width="1.5"></path><path d="M1098.18 -102.89L1281.37 -39.61" stroke="rgba(193, 2, 2, 0.29)" stroke-width="1.5"></path><path d="M1098.18 -102.89L1109.95 105.4" stroke="rgba(193, 2, 2, 0.29)" stroke-width="1.5"></path><path d="M1109.95 105.4L1109.95 105.4" stroke="rgba(193, 2, 2, 0.29)" stroke-width="1.5"></path><path d="M1109.95 105.4L1162.46 221.26" stroke="rgba(193, 2, 2, 0.29)" stroke-width="1.5"></path><path d="M1109.95 105.4L1270.85 43.82" stroke="rgba(193, 2, 2, 0.29)" stroke-width="1.5"></path><path d="M1109.95 105.4L1281.37 -39.61" stroke="rgba(193, 2, 2, 0.29)" stroke-width="1.5"></path><path d="M1162.46 221.26L1162.46 221.26" stroke="rgba(193, 2, 2, 0.29)" stroke-width="1.5"></path><path d="M1162.46 221.26L1134 338.94" stroke="rgba(193, 2, 2, 0.29)" stroke-width="1.5"></path><path d="M1162.46 221.26L1294.48 359.61" stroke="rgba(193, 2, 2, 0.29)" stroke-width="1.5"></path><path d="M1162.46 221.26L1270.85 43.82" stroke="rgba(193, 2, 2, 0.29)" stroke-width="1.5"></path><path d="M1134 338.94L1134 338.94" stroke="rgba(193, 2, 2, 0.29)" stroke-width="1.5"></path><path d="M1134 338.94L1294.48 359.61" stroke="rgba(193, 2, 2, 0.29)" stroke-width="1.5"></path><path d="M1134 338.94L997.62 197.4" stroke="rgba(193, 2, 2, 0.29)" stroke-width="1.5"></path><path d="M1134 338.94L1150.92 536.87" stroke="rgba(193, 2, 2, 0.29)" stroke-width="1.5"></path><path d="M1134 338.94L1264.27 534" stroke="rgba(193, 2, 2, 0.29)" stroke-width="1.5"></path><path d="M1150.92 536.87L1150.92 536.87" stroke="rgba(193, 2, 2, 0.29)" stroke-width="1.5"></path><path d="M1150.92 536.87L1264.27 534" stroke="rgba(193, 2, 2, 0.29)" stroke-width="1.5"></path><path d="M1150.92 536.87L1245.71 639.66" stroke="rgba(193, 2, 2, 0.29)" stroke-width="1.5"></path><path d="M1150.92 536.87L1129.78 703.06" stroke="rgba(193, 2, 2, 0.29)" stroke-width="1.5"></path><path d="M1150.92 536.87L1004.46 689.46" stroke="rgba(193, 2, 2, 0.29)" stroke-width="1.5"></path><path d="M1150.92 536.87L1294.48 359.61" stroke="rgba(193, 2, 2, 0.29)" stroke-width="1.5"></path><path d="M1129.78 703.06L1129.78 703.06" stroke="rgba(193, 2, 2, 0.29)" stroke-width="1.5"></path><path d="M1129.78 703.06L1245.71 639.66" stroke="rgba(193, 2, 2, 0.29)" stroke-width="1.5"></path><path d="M1281.37 -39.61L1281.37 -39.61" stroke="rgba(193, 2, 2, 0.29)" stroke-width="1.5"></path><path d="M1281.37 -39.61L1270.85 43.82" stroke="rgba(193, 2, 2, 0.29)" stroke-width="1.5"></path><path d="M1281.37 -39.61L1401.73 80.55" stroke="rgba(193, 2, 2, 0.29)" stroke-width="1.5"></path><path d="M1270.85 43.82L1270.85 43.82" stroke="rgba(193, 2, 2, 0.29)" stroke-width="1.5"></path><path d="M1270.85 43.82L1401.73 80.55" stroke="rgba(193, 2, 2, 0.29)" stroke-width="1.5"></path><path d="M1294.48 359.61L1294.48 359.61" stroke="rgba(193, 2, 2, 0.29)" stroke-width="1.5"></path><path d="M1294.48 359.61L1387.94 260.88" stroke="rgba(193, 2, 2, 0.29)" stroke-width="1.5"></path><path d="M1294.48 359.61L1443.03 347.05" stroke="rgba(193, 2, 2, 0.29)" stroke-width="1.5"></path><path d="M1294.48 359.61L1264.27 534" stroke="rgba(193, 2, 2, 0.29)" stroke-width="1.5"></path><path d="M1264.27 534L1264.27 534" stroke="rgba(193, 2, 2, 0.29)" stroke-width="1.5"></path><path d="M1264.27 534L1245.71 639.66" stroke="rgba(193, 2, 2, 0.29)" stroke-width="1.5"></path><path d="M1245.71 639.66L1245.71 639.66" stroke="rgba(193, 2, 2, 0.29)" stroke-width="1.5"></path><path d="M1245.71 639.66L1411 685.67" stroke="rgba(193, 2, 2, 0.29)" stroke-width="1.5"></path><path d="M1245.71 639.66L1453.22 545.37" stroke="rgba(193, 2, 2, 0.29)" stroke-width="1.5"></path><path d="M1458.18 -64.8L1458.18 -64.8" stroke="rgba(193, 2, 2, 0.29)" stroke-width="1.5"></path><path d="M1458.18 -64.8L1593.63 -77.87" stroke="rgba(193, 2, 2, 0.29)" stroke-width="1.5"></path><path d="M1458.18 -64.8L1401.73 80.55" stroke="rgba(193, 2, 2, 0.29)" stroke-width="1.5"></path><path d="M1401.73 80.55L1401.73 80.55" stroke="rgba(193, 2, 2, 0.29)" stroke-width="1.5"></path><path d="M1387.94 260.88L1387.94 260.88" stroke="rgba(193, 2, 2, 0.29)" stroke-width="1.5"></path><path d="M1387.94 260.88L1443.03 347.05" stroke="rgba(193, 2, 2, 0.29)" stroke-width="1.5"></path><path d="M1387.94 260.88L1548.45 252.34" stroke="rgba(193, 2, 2, 0.29)" stroke-width="1.5"></path><path d="M1387.94 260.88L1401.73 80.55" stroke="rgba(193, 2, 2, 0.29)" stroke-width="1.5"></path><path d="M1387.94 260.88L1539.35 399.98" stroke="rgba(193, 2, 2, 0.29)" stroke-width="1.5"></path><path d="M1443.03 347.05L1443.03 347.05" stroke="rgba(193, 2, 2, 0.29)" stroke-width="1.5"></path><path d="M1443.03 347.05L1539.35 399.98" stroke="rgba(193, 2, 2, 0.29)" stroke-width="1.5"></path><path d="M1443.03 347.05L1548.45 252.34" stroke="rgba(193, 2, 2, 0.29)" stroke-width="1.5"></path><path d="M1453.22 545.37L1453.22 545.37" stroke="rgba(193, 2, 2, 0.29)" stroke-width="1.5"></path><path d="M1453.22 545.37L1553.16 514.57" stroke="rgba(193, 2, 2, 0.29)" stroke-width="1.5"></path><path d="M1453.22 545.37L1411 685.67" stroke="rgba(193, 2, 2, 0.29)" stroke-width="1.5"></path><path d="M1453.22 545.37L1539.35 399.98" stroke="rgba(193, 2, 2, 0.29)" stroke-width="1.5"></path><path d="M1411 685.67L1411 685.67" stroke="rgba(193, 2, 2, 0.29)" stroke-width="1.5"></path><path d="M1593.63 -77.87L1593.63 -77.87" stroke="rgba(193, 2, 2, 0.29)" stroke-width="1.5"></path><path d="M1593.63 -77.87L1401.73 80.55" stroke="rgba(193, 2, 2, 0.29)" stroke-width="1.5"></path><path d="M1548.45 252.34L1548.45 252.34" stroke="rgba(193, 2, 2, 0.29)" stroke-width="1.5"></path><path d="M1548.45 252.34L1539.35 399.98" stroke="rgba(193, 2, 2, 0.29)" stroke-width="1.5"></path><path d="M1548.45 252.34L1401.73 80.55" stroke="rgba(193, 2, 2, 0.29)" stroke-width="1.5"></path><path d="M1539.35 399.98L1539.35 399.98" stroke="rgba(193, 2, 2, 0.29)" stroke-width="1.5"></path><path d="M1539.35 399.98L1553.16 514.57" stroke="rgba(193, 2, 2, 0.29)" stroke-width="1.5"></path><path d="M1553.16 514.57L1553.16 514.57" stroke="rgba(193, 2, 2, 0.29)" stroke-width="1.5"></path><path d="M1553.16 514.57L1587.86 689.32" stroke="rgba(193, 2, 2, 0.29)" stroke-width="1.5"></path><path d="M1553.16 514.57L1443.03 347.05" stroke="rgba(193, 2, 2, 0.29)" stroke-width="1.5"></path><path d="M1587.86 689.32L1587.86 689.32" stroke="rgba(193, 2, 2, 0.29)" stroke-width="1.5"></path><path d="M1587.86 689.32L1411 685.67" stroke="rgba(193, 2, 2, 0.29)" stroke-width="1.5"></path><path d="M1587.86 689.32L1453.22 545.37" stroke="rgba(193, 2, 2, 0.29)" stroke-width="1.5"></path><circle r="5" cx="-84.4" cy="373.73" fill="rgba(193, 2, 2, 0.29)"></circle><circle r="5" cx="-45.98" cy="516.79" fill="rgba(193, 2, 2, 0.29)"></circle><circle r="5" cx="-67.26" cy="672.42" fill="rgba(193, 2, 2, 0.29)"></circle><circle r="5" cx="86" cy="339.41" fill="rgba(193, 2, 2, 0.29)"></circle><circle r="5" cx="49.61" cy="507.53" fill="rgba(193, 2, 2, 0.29)"></circle><circle r="5" cx="98" cy="655.36" fill="rgba(193, 2, 2, 0.29)"></circle><circle r="5" cx="259.42" cy="376.35" fill="rgba(193, 2, 2, 0.29)"></circle><circle r="5" cx="205.27" cy="512.95" fill="rgba(193, 2, 2, 0.29)"></circle><circle r="5" cx="231.33" cy="669.24" fill="rgba(193, 2, 2, 0.29)"></circle><circle r="5" cx="400.18" cy="368.97" fill="rgba(193, 2, 2, 0.29)"></circle><circle r="5" cx="354.03" cy="518.52" fill="rgba(193, 2, 2, 0.29)"></circle><circle r="5" cx="372.92" cy="643.49" fill="rgba(193, 2, 2, 0.29)"></circle><circle r="5" cx="512.68" cy="488.16" fill="rgba(193, 2, 2, 0.29)"></circle><circle r="5" cx="506.23" cy="671.94" fill="rgba(193, 2, 2, 0.29)"></circle><circle r="5" cx="680.89" cy="363.45" fill="rgba(193, 2, 2, 0.29)"></circle><circle r="5" cx="668.55" cy="530.78" fill="rgba(193, 2, 2, 0.29)"></circle><circle r="5" cx="649.42" cy="694.65" fill="rgba(193, 2, 2, 0.29)"></circle><circle r="5" cx="849.01" cy="226.06" fill="rgba(193, 2, 2, 0.29)"></circle><circle r="5" cx="827.84" cy="358.05" fill="rgba(193, 2, 2, 0.29)"></circle><circle r="5" cx="806.94" cy="519.52" fill="rgba(193, 2, 2, 0.29)"></circle><circle r="5" cx="816.63" cy="698.21" fill="rgba(193, 2, 2, 0.29)"></circle><circle r="5" cx="960.85" cy="-66.75" fill="rgba(193, 2, 2, 0.29)"></circle><circle r="5" cx="955.78" cy="66.29" fill="rgba(193, 2, 2, 0.29)"></circle><circle r="5" cx="997.62" cy="197.4" fill="rgba(193, 2, 2, 0.29)"></circle><circle r="5" cx="963.96" cy="387.78" fill="rgba(193, 2, 2, 0.29)"></circle><circle r="5" cx="1004.46" cy="689.46" fill="rgba(193, 2, 2, 0.29)"></circle><circle r="5" cx="1098.18" cy="-102.89" fill="rgba(193, 2, 2, 0.29)"></circle><circle r="5" cx="1109.95" cy="105.4" fill="rgba(193, 2, 2, 0.29)"></circle><circle r="5" cx="1162.46" cy="221.26" fill="rgba(193, 2, 2, 0.29)"></circle><circle r="5" cx="1134" cy="338.94" fill="rgba(193, 2, 2, 0.29)"></circle><circle r="5" cx="1150.92" cy="536.87" fill="rgba(193, 2, 2, 0.29)"></circle><circle r="5" cx="1129.78" cy="703.06" fill="rgba(193, 2, 2, 0.29)"></circle><circle r="5" cx="1281.37" cy="-39.61" fill="rgba(193, 2, 2, 0.29)"></circle><circle r="5" cx="1270.85" cy="43.82" fill="rgba(193, 2, 2, 0.29)"></circle><circle r="5" cx="1294.48" cy="359.61" fill="rgba(193, 2, 2, 0.29)"></circle><circle r="5" cx="1264.27" cy="534" fill="rgba(193, 2, 2, 0.29)"></circle><circle r="5" cx="1245.71" cy="639.66" fill="rgba(193, 2, 2, 0.29)"></circle><circle r="5" cx="1458.18" cy="-64.8" fill="rgba(193, 2, 2, 0.29)"></circle><circle r="5" cx="1401.73" cy="80.55" fill="rgba(193, 2, 2, 0.29)"></circle><circle r="5" cx="1387.94" cy="260.88" fill="rgba(193, 2, 2, 0.29)"></circle><circle r="5" cx="1443.03" cy="347.05" fill="rgba(193, 2, 2, 0.29)"></circle><circle r="5" cx="1453.22" cy="545.37" fill="rgba(193, 2, 2, 0.29)"></circle><circle r="5" cx="1411" cy="685.67" fill="rgba(193, 2, 2, 0.29)"></circle><circle r="5" cx="1593.63" cy="-77.87" fill="rgba(193, 2, 2, 0.29)"></circle><circle r="5" cx="1548.45" cy="252.34" fill="rgba(193, 2, 2, 0.29)"></circle><circle r="5" cx="1539.35" cy="399.98" fill="rgba(193, 2, 2, 0.29)"></circle><circle r="5" cx="1553.16" cy="514.57" fill="rgba(193, 2, 2, 0.29)"></circle><circle r="5" cx="1587.86" cy="689.32" fill="rgba(193, 2, 2, 0.29)"></circle><path d="M55.94 647.89L55.94 647.89" stroke="hsla(240, 97.9%, 49.7%, 0.54)" stroke-width="1.5"></path><path d="M55.94 647.89L204.53 668.01" stroke="hsla(240, 97.9%, 49.7%, 0.54)" stroke-width="1.5"></path><path d="M55.94 647.89L98.91 490.79" stroke="hsla(240, 97.9%, 49.7%, 0.54)" stroke-width="1.5"></path><path d="M55.94 647.89L-86.29 551.25" stroke="hsla(240, 97.9%, 49.7%, 0.54)" stroke-width="1.5"></path><path d="M55.94 647.89L200.69 531.22" stroke="hsla(240, 97.9%, 49.7%, 0.54)" stroke-width="1.5"></path><path d="M55.94 647.89L356.46 662.36" stroke="hsla(240, 97.9%, 49.7%, 0.54)" stroke-width="1.5"></path><path d="M204.53 668.01L204.53 668.01" stroke="hsla(240, 97.9%, 49.7%, 0.54)" stroke-width="1.5"></path><path d="M204.53 668.01L200.69 531.22" stroke="hsla(240, 97.9%, 49.7%, 0.54)" stroke-width="1.5"></path><path d="M204.53 668.01L356.46 662.36" stroke="hsla(240, 97.9%, 49.7%, 0.54)" stroke-width="1.5"></path><path d="M204.53 668.01L98.91 490.79" stroke="hsla(240, 97.9%, 49.7%, 0.54)" stroke-width="1.5"></path><path d="M500.48 512.07L500.48 512.07" stroke="hsla(240, 97.9%, 49.7%, 0.54)" stroke-width="1.5"></path><path d="M500.48 512.07L495.43 408.67" stroke="hsla(240, 97.9%, 49.7%, 0.54)" stroke-width="1.5"></path><path d="M500.48 512.07L373.91 527.2" stroke="hsla(240, 97.9%, 49.7%, 0.54)" stroke-width="1.5"></path><path d="M500.48 512.07L512.94 676.05" stroke="hsla(240, 97.9%, 49.7%, 0.54)" stroke-width="1.5"></path><path d="M500.48 512.07L679.41 556.73" stroke="hsla(240, 97.9%, 49.7%, 0.54)" stroke-width="1.5"></path><path d="M500.48 512.07L640.11 662.42" stroke="hsla(240, 97.9%, 49.7%, 0.54)" stroke-width="1.5"></path><path d="M679.41 556.73L679.41 556.73" stroke="hsla(240, 97.9%, 49.7%, 0.54)" stroke-width="1.5"></path><path d="M679.41 556.73L640.11 662.42" stroke="hsla(240, 97.9%, 49.7%, 0.54)" stroke-width="1.5"></path><path d="M679.41 556.73L806.33 524.56" stroke="hsla(240, 97.9%, 49.7%, 0.54)" stroke-width="1.5"></path><path d="M679.41 556.73L828.08 683.1" stroke="hsla(240, 97.9%, 49.7%, 0.54)" stroke-width="1.5"></path><path d="M828.08 683.1L828.08 683.1" stroke="hsla(240, 97.9%, 49.7%, 0.54)" stroke-width="1.5"></path><path d="M828.08 683.1L806.33 524.56" stroke="hsla(240, 97.9%, 49.7%, 0.54)" stroke-width="1.5"></path><path d="M828.08 683.1L1012.43 677.81" stroke="hsla(240, 97.9%, 49.7%, 0.54)" stroke-width="1.5"></path><path d="M828.08 683.1L640.11 662.42" stroke="hsla(240, 97.9%, 49.7%, 0.54)" stroke-width="1.5"></path><path d="M1393.96 -101.6L1393.96 -101.6" stroke="hsla(240, 97.9%, 49.7%, 0.54)" stroke-width="1.5"></path><path d="M1393.96 -101.6L1311.16 64.62" stroke="hsla(240, 97.9%, 49.7%, 0.54)" stroke-width="1.5"></path><path d="M1393.96 -101.6L1424.29 99.52" stroke="hsla(240, 97.9%, 49.7%, 0.54)" stroke-width="1.5"></path><path d="M1393.96 -101.6L1605.05 -54.47" stroke="hsla(240, 97.9%, 49.7%, 0.54)" stroke-width="1.5"></path><path d="M1393.96 -101.6L1560.15 74.99" stroke="hsla(240, 97.9%, 49.7%, 0.54)" stroke-width="1.5"></path><path d="M1424.29 99.52L1424.29 99.52" stroke="hsla(240, 97.9%, 49.7%, 0.54)" stroke-width="1.5"></path><path d="M1424.29 99.52L1407.65 212.36" stroke="hsla(240, 97.9%, 49.7%, 0.54)" stroke-width="1.5"></path><path d="M1424.29 99.52L1311.16 64.62" stroke="hsla(240, 97.9%, 49.7%, 0.54)" stroke-width="1.5"></path><path d="M1424.29 99.52L1560.15 74.99" stroke="hsla(240, 97.9%, 49.7%, 0.54)" stroke-width="1.5"></path><path d="M-86.29 551.25L-86.29 551.25" stroke="hsla(240, 97.9%, 49.7%, 0.54)" stroke-width="1.5"></path><path d="M-86.29 551.25L98.91 490.79" stroke="hsla(240, 97.9%, 49.7%, 0.54)" stroke-width="1.5"></path><path d="M-86.29 551.25L200.69 531.22" stroke="hsla(240, 97.9%, 49.7%, 0.54)" stroke-width="1.5"></path><path d="M-86.29 551.25L204.53 668.01" stroke="hsla(240, 97.9%, 49.7%, 0.54)" stroke-width="1.5"></path><path d="M98.91 490.79L98.91 490.79" stroke="hsla(240, 97.9%, 49.7%, 0.54)" stroke-width="1.5"></path><path d="M98.91 490.79L200.69 531.22" stroke="hsla(240, 97.9%, 49.7%, 0.54)" stroke-width="1.5"></path><path d="M98.91 490.79L373.91 527.2" stroke="hsla(240, 97.9%, 49.7%, 0.54)" stroke-width="1.5"></path><path d="M200.69 531.22L200.69 531.22" stroke="hsla(240, 97.9%, 49.7%, 0.54)" stroke-width="1.5"></path><path d="M200.69 531.22L373.91 527.2" stroke="hsla(240, 97.9%, 49.7%, 0.54)" stroke-width="1.5"></path><path d="M373.91 527.2L373.91 527.2" stroke="hsla(240, 97.9%, 49.7%, 0.54)" stroke-width="1.5"></path><path d="M373.91 527.2L356.46 662.36" stroke="hsla(240, 97.9%, 49.7%, 0.54)" stroke-width="1.5"></path><path d="M356.46 662.36L356.46 662.36" stroke="hsla(240, 97.9%, 49.7%, 0.54)" stroke-width="1.5"></path><path d="M495.43 408.67L495.43 408.67" stroke="hsla(240, 97.9%, 49.7%, 0.54)" stroke-width="1.5"></path><path d="M495.43 408.67L373.91 527.2" stroke="hsla(240, 97.9%, 49.7%, 0.54)" stroke-width="1.5"></path><path d="M512.94 676.05L512.94 676.05" stroke="hsla(240, 97.9%, 49.7%, 0.54)" stroke-width="1.5"></path><path d="M512.94 676.05L640.11 662.42" stroke="hsla(240, 97.9%, 49.7%, 0.54)" stroke-width="1.5"></path><path d="M512.94 676.05L356.46 662.36" stroke="hsla(240, 97.9%, 49.7%, 0.54)" stroke-width="1.5"></path><path d="M640.11 662.42L640.11 662.42" stroke="hsla(240, 97.9%, 49.7%, 0.54)" stroke-width="1.5"></path><path d="M859.92 343.64L859.92 343.64" stroke="hsla(240, 97.9%, 49.7%, 0.54)" stroke-width="1.5"></path><path d="M859.92 343.64L959.35 366.07" stroke="hsla(240, 97.9%, 49.7%, 0.54)" stroke-width="1.5"></path><path d="M859.92 343.64L970.94 489.57" stroke="hsla(240, 97.9%, 49.7%, 0.54)" stroke-width="1.5"></path><path d="M859.92 343.64L806.33 524.56" stroke="hsla(240, 97.9%, 49.7%, 0.54)" stroke-width="1.5"></path><path d="M859.92 343.64L1094.11 225.62" stroke="hsla(240, 97.9%, 49.7%, 0.54)" stroke-width="1.5"></path><path d="M859.92 343.64L679.41 556.73" stroke="hsla(240, 97.9%, 49.7%, 0.54)" stroke-width="1.5"></path><path d="M806.33 524.56L806.33 524.56" stroke="hsla(240, 97.9%, 49.7%, 0.54)" stroke-width="1.5"></path><path d="M806.33 524.56L970.94 489.57" stroke="hsla(240, 97.9%, 49.7%, 0.54)" stroke-width="1.5"></path><path d="M806.33 524.56L640.11 662.42" stroke="hsla(240, 97.9%, 49.7%, 0.54)" stroke-width="1.5"></path><path d="M806.33 524.56L959.35 366.07" stroke="hsla(240, 97.9%, 49.7%, 0.54)" stroke-width="1.5"></path><path d="M959.35 366.07L959.35 366.07" stroke="hsla(240, 97.9%, 49.7%, 0.54)" stroke-width="1.5"></path><path d="M959.35 366.07L970.94 489.57" stroke="hsla(240, 97.9%, 49.7%, 0.54)" stroke-width="1.5"></path><path d="M959.35 366.07L1149.56 348.03" stroke="hsla(240, 97.9%, 49.7%, 0.54)" stroke-width="1.5"></path><path d="M959.35 366.07L1094.11 225.62" stroke="hsla(240, 97.9%, 49.7%, 0.54)" stroke-width="1.5"></path><path d="M959.35 366.07L1139.1 546.99" stroke="hsla(240, 97.9%, 49.7%, 0.54)" stroke-width="1.5"></path><path d="M970.94 489.57L970.94 489.57" stroke="hsla(240, 97.9%, 49.7%, 0.54)" stroke-width="1.5"></path><path d="M970.94 489.57L1139.1 546.99" stroke="hsla(240, 97.9%, 49.7%, 0.54)" stroke-width="1.5"></path><path d="M970.94 489.57L1012.43 677.81" stroke="hsla(240, 97.9%, 49.7%, 0.54)" stroke-width="1.5"></path><path d="M970.94 489.57L1108.39 667.44" stroke="hsla(240, 97.9%, 49.7%, 0.54)" stroke-width="1.5"></path><path d="M1012.43 677.81L1012.43 677.81" stroke="hsla(240, 97.9%, 49.7%, 0.54)" stroke-width="1.5"></path><path d="M1012.43 677.81L1108.39 667.44" stroke="hsla(240, 97.9%, 49.7%, 0.54)" stroke-width="1.5"></path><path d="M1012.43 677.81L1139.1 546.99" stroke="hsla(240, 97.9%, 49.7%, 0.54)" stroke-width="1.5"></path><path d="M1012.43 677.81L1250.58 670.94" stroke="hsla(240, 97.9%, 49.7%, 0.54)" stroke-width="1.5"></path><path d="M1094.11 225.62L1094.11 225.62" stroke="hsla(240, 97.9%, 49.7%, 0.54)" stroke-width="1.5"></path><path d="M1094.11 225.62L1149.56 348.03" stroke="hsla(240, 97.9%, 49.7%, 0.54)" stroke-width="1.5"></path><path d="M1094.11 225.62L1265.01 247.79" stroke="hsla(240, 97.9%, 49.7%, 0.54)" stroke-width="1.5"></path><path d="M1149.56 348.03L1149.56 348.03" stroke="hsla(240, 97.9%, 49.7%, 0.54)" stroke-width="1.5"></path><path d="M1149.56 348.03L1255.85 407.13" stroke="hsla(240, 97.9%, 49.7%, 0.54)" stroke-width="1.5"></path><path d="M1149.56 348.03L1265.01 247.79" stroke="hsla(240, 97.9%, 49.7%, 0.54)" stroke-width="1.5"></path><path d="M1139.1 546.99L1139.1 546.99" stroke="hsla(240, 97.9%, 49.7%, 0.54)" stroke-width="1.5"></path><path d="M1139.1 546.99L1108.39 667.44" stroke="hsla(240, 97.9%, 49.7%, 0.54)" stroke-width="1.5"></path><path d="M1108.39 667.44L1108.39 667.44" stroke="hsla(240, 97.9%, 49.7%, 0.54)" stroke-width="1.5"></path><path d="M1311.16 64.62L1311.16 64.62" stroke="hsla(240, 97.9%, 49.7%, 0.54)" stroke-width="1.5"></path><path d="M1311.16 64.62L1407.65 212.36" stroke="hsla(240, 97.9%, 49.7%, 0.54)" stroke-width="1.5"></path><path d="M1265.01 247.79L1265.01 247.79" stroke="hsla(240, 97.9%, 49.7%, 0.54)" stroke-width="1.5"></path><path d="M1265.01 247.79L1407.65 212.36" stroke="hsla(240, 97.9%, 49.7%, 0.54)" stroke-width="1.5"></path><path d="M1265.01 247.79L1255.85 407.13" stroke="hsla(240, 97.9%, 49.7%, 0.54)" stroke-width="1.5"></path><path d="M1265.01 247.79L1311.16 64.62" stroke="hsla(240, 97.9%, 49.7%, 0.54)" stroke-width="1.5"></path><path d="M1265.01 247.79L1424.29 99.52" stroke="hsla(240, 97.9%, 49.7%, 0.54)" stroke-width="1.5"></path><path d="M1255.85 407.13L1255.85 407.13" stroke="hsla(240, 97.9%, 49.7%, 0.54)" stroke-width="1.5"></path><path d="M1255.85 407.13L1268.68 558.35" stroke="hsla(240, 97.9%, 49.7%, 0.54)" stroke-width="1.5"></path><path d="M1268.68 558.35L1268.68 558.35" stroke="hsla(240, 97.9%, 49.7%, 0.54)" stroke-width="1.5"></path><path d="M1268.68 558.35L1250.58 670.94" stroke="hsla(240, 97.9%, 49.7%, 0.54)" stroke-width="1.5"></path><path d="M1268.68 558.35L1139.1 546.99" stroke="hsla(240, 97.9%, 49.7%, 0.54)" stroke-width="1.5"></path><path d="M1268.68 558.35L1407.91 539.59" stroke="hsla(240, 97.9%, 49.7%, 0.54)" stroke-width="1.5"></path><path d="M1268.68 558.35L1397.61 661.94" stroke="hsla(240, 97.9%, 49.7%, 0.54)" stroke-width="1.5"></path><path d="M1268.68 558.35L1108.39 667.44" stroke="hsla(240, 97.9%, 49.7%, 0.54)" stroke-width="1.5"></path><path d="M1250.58 670.94L1250.58 670.94" stroke="hsla(240, 97.9%, 49.7%, 0.54)" stroke-width="1.5"></path><path d="M1250.58 670.94L1108.39 667.44" stroke="hsla(240, 97.9%, 49.7%, 0.54)" stroke-width="1.5"></path><path d="M1407.65 212.36L1407.65 212.36" stroke="hsla(240, 97.9%, 49.7%, 0.54)" stroke-width="1.5"></path><path d="M1407.65 212.36L1583.03 247.88" stroke="hsla(240, 97.9%, 49.7%, 0.54)" stroke-width="1.5"></path><path d="M1407.65 212.36L1459.99 389.49" stroke="hsla(240, 97.9%, 49.7%, 0.54)" stroke-width="1.5"></path><path d="M1459.99 389.49L1459.99 389.49" stroke="hsla(240, 97.9%, 49.7%, 0.54)" stroke-width="1.5"></path><path d="M1459.99 389.49L1598.46 404.87" stroke="hsla(240, 97.9%, 49.7%, 0.54)" stroke-width="1.5"></path><path d="M1459.99 389.49L1407.91 539.59" stroke="hsla(240, 97.9%, 49.7%, 0.54)" stroke-width="1.5"></path><path d="M1407.91 539.59L1407.91 539.59" stroke="hsla(240, 97.9%, 49.7%, 0.54)" stroke-width="1.5"></path><path d="M1407.91 539.59L1397.61 661.94" stroke="hsla(240, 97.9%, 49.7%, 0.54)" stroke-width="1.5"></path><path d="M1407.91 539.59L1570.28 507.66" stroke="hsla(240, 97.9%, 49.7%, 0.54)" stroke-width="1.5"></path><path d="M1407.91 539.59L1255.85 407.13" stroke="hsla(240, 97.9%, 49.7%, 0.54)" stroke-width="1.5"></path><path d="M1407.91 539.59L1250.58 670.94" stroke="hsla(240, 97.9%, 49.7%, 0.54)" stroke-width="1.5"></path><path d="M1397.61 661.94L1397.61 661.94" stroke="hsla(240, 97.9%, 49.7%, 0.54)" stroke-width="1.5"></path><path d="M1397.61 661.94L1250.58 670.94" stroke="hsla(240, 97.9%, 49.7%, 0.54)" stroke-width="1.5"></path><path d="M1605.05 -54.47L1605.05 -54.47" stroke="hsla(240, 97.9%, 49.7%, 0.54)" stroke-width="1.5"></path><path d="M1605.05 -54.47L1560.15 74.99" stroke="hsla(240, 97.9%, 49.7%, 0.54)" stroke-width="1.5"></path><path d="M1605.05 -54.47L1424.29 99.52" stroke="hsla(240, 97.9%, 49.7%, 0.54)" stroke-width="1.5"></path><path d="M1605.05 -54.47L1583.03 247.88" stroke="hsla(240, 97.9%, 49.7%, 0.54)" stroke-width="1.5"></path><path d="M1560.15 74.99L1560.15 74.99" stroke="hsla(240, 97.9%, 49.7%, 0.54)" stroke-width="1.5"></path><path d="M1560.15 74.99L1583.03 247.88" stroke="hsla(240, 97.9%, 49.7%, 0.54)" stroke-width="1.5"></path><path d="M1560.15 74.99L1407.65 212.36" stroke="hsla(240, 97.9%, 49.7%, 0.54)" stroke-width="1.5"></path><path d="M1583.03 247.88L1583.03 247.88" stroke="hsla(240, 97.9%, 49.7%, 0.54)" stroke-width="1.5"></path><path d="M1583.03 247.88L1598.46 404.87" stroke="hsla(240, 97.9%, 49.7%, 0.54)" stroke-width="1.5"></path><path d="M1598.46 404.87L1598.46 404.87" stroke="hsla(240, 97.9%, 49.7%, 0.54)" stroke-width="1.5"></path><path d="M1598.46 404.87L1570.28 507.66" stroke="hsla(240, 97.9%, 49.7%, 0.54)" stroke-width="1.5"></path><path d="M1570.28 507.66L1570.28 507.66" stroke="hsla(240, 97.9%, 49.7%, 0.54)" stroke-width="1.5"></path><path d="M1570.28 507.66L1459.99 389.49" stroke="hsla(240, 97.9%, 49.7%, 0.54)" stroke-width="1.5"></path><path d="M1570.28 507.66L1552.07 693.09" stroke="hsla(240, 97.9%, 49.7%, 0.54)" stroke-width="1.5"></path><path d="M1552.07 693.09L1552.07 693.09" stroke="hsla(240, 97.9%, 49.7%, 0.54)" stroke-width="1.5"></path><path d="M1552.07 693.09L1397.61 661.94" stroke="hsla(240, 97.9%, 49.7%, 0.54)" stroke-width="1.5"></path><path d="M1552.07 693.09L1407.91 539.59" stroke="hsla(240, 97.9%, 49.7%, 0.54)" stroke-width="1.5"></path><path d="M1552.07 693.09L1598.46 404.87" stroke="hsla(240, 97.9%, 49.7%, 0.54)" stroke-width="1.5"></path><path d="M1552.07 693.09L1250.58 670.94" stroke="hsla(240, 97.9%, 49.7%, 0.54)" stroke-width="1.5"></path><circle r="25" cx="55.94" cy="647.89" fill="url(&quot;#SvgjsRadialGradient1011&quot;)"></circle><circle r="25" cx="204.53" cy="668.01" fill="url(&quot;#SvgjsRadialGradient1011&quot;)"></circle><circle r="25" cx="500.48" cy="512.07" fill="url(&quot;#SvgjsRadialGradient1011&quot;)"></circle><circle r="25" cx="679.41" cy="556.73" fill="url(&quot;#SvgjsRadialGradient1011&quot;)"></circle><circle r="25" cx="828.08" cy="683.1" fill="url(&quot;#SvgjsRadialGradient1011&quot;)"></circle><circle r="25" cx="1393.96" cy="-101.6" fill="url(&quot;#SvgjsRadialGradient1011&quot;)"></circle><circle r="25" cx="1424.29" cy="99.52" fill="url(&quot;#SvgjsRadialGradient1011&quot;)"></circle><circle r="5" cx="-86.29" cy="551.25" fill="rgba(187, 187, 238, 0.77)"></circle><circle r="5" cx="98.91" cy="490.79" fill="rgba(187, 187, 238, 0.77)"></circle><circle r="5" cx="200.69" cy="531.22" fill="rgba(187, 187, 238, 0.77)"></circle><circle r="5" cx="373.91" cy="527.2" fill="rgba(187, 187, 238, 0.77)"></circle><circle r="5" cx="356.46" cy="662.36" fill="rgba(187, 187, 238, 0.77)"></circle><circle r="5" cx="495.43" cy="408.67" fill="rgba(187, 187, 238, 0.77)"></circle><circle r="5" cx="512.94" cy="676.05" fill="rgba(187, 187, 238, 0.77)"></circle><circle r="5" cx="640.11" cy="662.42" fill="rgba(187, 187, 238, 0.77)"></circle><circle r="5" cx="859.92" cy="343.64" fill="rgba(187, 187, 238, 0.77)"></circle><circle r="5" cx="806.33" cy="524.56" fill="rgba(187, 187, 238, 0.77)"></circle><circle r="5" cx="959.35" cy="366.07" fill="rgba(187, 187, 238, 0.77)"></circle><circle r="5" cx="970.94" cy="489.57" fill="rgba(187, 187, 238, 0.77)"></circle><circle r="5" cx="1012.43" cy="677.81" fill="rgba(187, 187, 238, 0.77)"></circle><circle r="5" cx="1094.11" cy="225.62" fill="rgba(187, 187, 238, 0.77)"></circle><circle r="5" cx="1149.56" cy="348.03" fill="rgba(187, 187, 238, 0.77)"></circle><circle r="5" cx="1139.1" cy="546.99" fill="rgba(187, 187, 238, 0.77)"></circle><circle r="5" cx="1108.39" cy="667.44" fill="rgba(187, 187, 238, 0.77)"></circle><circle r="5" cx="1311.16" cy="64.62" fill="rgba(187, 187, 238, 0.77)"></circle><circle r="5" cx="1265.01" cy="247.79" fill="rgba(187, 187, 238, 0.77)"></circle><circle r="5" cx="1255.85" cy="407.13" fill="rgba(187, 187, 238, 0.77)"></circle><circle r="5" cx="1268.68" cy="558.35" fill="rgba(187, 187, 238, 0.77)"></circle><circle r="5" cx="1250.58" cy="670.94" fill="rgba(187, 187, 238, 0.77)"></circle><circle r="5" cx="1407.65" cy="212.36" fill="rgba(187, 187, 238, 0.77)"></circle><circle r="5" cx="1459.99" cy="389.49" fill="rgba(187, 187, 238, 0.77)"></circle><circle r="5" cx="1407.91" cy="539.59" fill="rgba(187, 187, 238, 0.77)"></circle><circle r="5" cx="1397.61" cy="661.94" fill="rgba(187, 187, 238, 0.77)"></circle><circle r="5" cx="1605.05" cy="-54.47" fill="rgba(187, 187, 238, 0.77)"></circle><circle r="5" cx="1560.15" cy="74.99" fill="rgba(187, 187, 238, 0.77)"></circle><circle r="5" cx="1583.03" cy="247.88" fill="rgba(187, 187, 238, 0.77)"></circle><circle r="5" cx="1598.46" cy="404.87" fill="rgba(187, 187, 238, 0.77)"></circle><circle r="5" cx="1570.28" cy="507.66" fill="rgba(187, 187, 238, 0.77)"></circle><circle r="5" cx="1552.07" cy="693.09" fill="rgba(187, 187, 238, 0.77)"></circle></g><defs><mask id="SvgjsMask1010"><rect width="1440" height="560" fill="#ffffff"></rect></mask><radialGradient id="SvgjsRadialGradient1011"><stop stop-color="#ffffff" offset="0.1"></stop><stop stop-color="rgba(2, 2, 193, 0.54)" offset="0.2"></stop><stop stop-color="rgba(2, 2, 193, 0)" offset="1"></stop></radialGradient></defs></svg>